name C:\Users\u0101727\Documents\MyRepositories\upper-imu-dc\OpenSim\subject0\MA\MA_Splines\angle_in_n6_dof6_3.mot
datacolumns 7
datarows 67
range 325.01000000 325.67000000
endheader 
time	clav_prot	clav_elev	scapula_abduction	scapula_elevation	scapula_upward_rot	scapula_winging	
        325.01000000	        -23.33033544	         11.96046367	        -17.92766020	         -7.82036939	         23.68359952	          2.02322237	
        325.02000000	        -16.90593547	         11.96046367	        -17.92766020	         -7.82036939	         23.68359952	          2.02322237	
        325.03000000	        -49.02793530	         16.86370047	        -17.92766020	         -7.82036939	         23.68359952	          2.02322237	
        325.04000000	        -42.60353533	         16.86370047	        -17.92766020	         -7.82036939	         23.68359952	          2.02322237	
        325.05000000	        -36.17913537	         16.86370047	        -17.92766020	         -7.82036939	         23.68359952	          2.02322237	
        325.06000000	        -29.75473540	         16.86370047	        -17.92766020	         -7.82036939	         23.68359952	          2.02322237	
        325.07000000	        -23.33033544	         16.86370047	        -17.92766020	         -7.82036939	         23.68359952	          2.02322237	
        325.08000000	        -16.90593547	         16.86370047	        -17.92766020	         -7.82036939	         23.68359952	          2.02322237	
        325.09000000	        -49.02793530	         -7.65248351	         -8.18913718	         -7.82036939	         23.68359952	          2.02322237	
        325.10000000	        -42.60353533	         -7.65248351	         -8.18913718	         -7.82036939	         23.68359952	          2.02322237	
        325.11000000	        -36.17913537	         -7.65248351	         -8.18913718	         -7.82036939	         23.68359952	          2.02322237	
        325.12000000	        -29.75473540	         -7.65248351	         -8.18913718	         -7.82036939	         23.68359952	          2.02322237	
        325.13000000	        -23.33033544	         -7.65248351	         -8.18913718	         -7.82036939	         23.68359952	          2.02322237	
        325.14000000	        -16.90593547	         -7.65248351	         -8.18913718	         -7.82036939	         23.68359952	          2.02322237	
        325.15000000	        -49.02793530	         -2.74924671	         -8.18913718	         -7.82036939	         23.68359952	          2.02322237	
        325.16000000	        -42.60353533	         -2.74924671	         -8.18913718	         -7.82036939	         23.68359952	          2.02322237	
        325.17000000	        -36.17913537	         -2.74924671	         -8.18913718	         -7.82036939	         23.68359952	          2.02322237	
        325.18000000	        -29.75473540	         -2.74924671	         -8.18913718	         -7.82036939	         23.68359952	          2.02322237	
        325.19000000	        -23.33033544	         -2.74924671	         -8.18913718	         -7.82036939	         23.68359952	          2.02322237	
        325.20000000	        -16.90593547	         -2.74924671	         -8.18913718	         -7.82036939	         23.68359952	          2.02322237	
        325.21000000	        -49.02793530	          2.15399008	         -8.18913718	         -7.82036939	         23.68359952	          2.02322237	
        325.22000000	        -42.60353533	          2.15399008	         -8.18913718	         -7.82036939	         23.68359952	          2.02322237	
        325.23000000	        -36.17913537	          2.15399008	         -8.18913718	         -7.82036939	         23.68359952	          2.02322237	
        325.24000000	        -29.75473540	          2.15399008	         -8.18913718	         -7.82036939	         23.68359952	          2.02322237	
        325.25000000	        -23.33033544	          2.15399008	         -8.18913718	         -7.82036939	         23.68359952	          2.02322237	
        325.26000000	        -16.90593547	          2.15399008	         -8.18913718	         -7.82036939	         23.68359952	          2.02322237	
        325.27000000	        -49.02793530	          7.05722688	         -8.18913718	         -7.82036939	         23.68359952	          2.02322237	
        325.28000000	        -42.60353533	          7.05722688	         -8.18913718	         -7.82036939	         23.68359952	          2.02322237	
        325.29000000	        -36.17913537	          7.05722688	         -8.18913718	         -7.82036939	         23.68359952	          2.02322237	
        325.30000000	        -29.75473540	          7.05722688	         -8.18913718	         -7.82036939	         23.68359952	          2.02322237	
        325.31000000	        -23.33033544	          7.05722688	         -8.18913718	         -7.82036939	         23.68359952	          2.02322237	
        325.32000000	        -16.90593547	          7.05722688	         -8.18913718	         -7.82036939	         23.68359952	          2.02322237	
        325.33000000	        -49.02793530	         11.96046367	         -8.18913718	         -7.82036939	         23.68359952	          2.02322237	
        325.34000000	        -42.60353533	         11.96046367	         -8.18913718	         -7.82036939	         23.68359952	          2.02322237	
        325.35000000	        -36.17913537	         11.96046367	         -8.18913718	         -7.82036939	         23.68359952	          2.02322237	
        325.36000000	        -29.75473540	         11.96046367	         -8.18913718	         -7.82036939	         23.68359952	          2.02322237	
        325.37000000	        -23.33033544	         11.96046367	         -8.18913718	         -7.82036939	         23.68359952	          2.02322237	
        325.38000000	        -16.90593547	         11.96046367	         -8.18913718	         -7.82036939	         23.68359952	          2.02322237	
        325.39000000	        -49.02793530	         16.86370047	         -8.18913718	         -7.82036939	         23.68359952	          2.02322237	
        325.40000000	        -42.60353533	         16.86370047	         -8.18913718	         -7.82036939	         23.68359952	          2.02322237	
        325.41000000	        -36.17913537	         16.86370047	         -8.18913718	         -7.82036939	         23.68359952	          2.02322237	
        325.42000000	        -29.75473540	         16.86370047	         -8.18913718	         -7.82036939	         23.68359952	          2.02322237	
        325.43000000	        -23.33033544	         16.86370047	         -8.18913718	         -7.82036939	         23.68359952	          2.02322237	
        325.44000000	        -16.90593547	         16.86370047	         -8.18913718	         -7.82036939	         23.68359952	          2.02322237	
        325.45000000	        -49.02793530	         -7.65248351	          1.54938583	         -7.82036939	         23.68359952	          2.02322237	
        325.46000000	        -42.60353533	         -7.65248351	          1.54938583	         -7.82036939	         23.68359952	          2.02322237	
        325.47000000	        -36.17913537	         -7.65248351	          1.54938583	         -7.82036939	         23.68359952	          2.02322237	
        325.48000000	        -29.75473540	         -7.65248351	          1.54938583	         -7.82036939	         23.68359952	          2.02322237	
        325.49000000	        -23.33033544	         -7.65248351	          1.54938583	         -7.82036939	         23.68359952	          2.02322237	
        325.50000000	        -16.90593547	         -7.65248351	          1.54938583	         -7.82036939	         23.68359952	          2.02322237	
        325.51000000	        -49.02793530	         -2.74924671	          1.54938583	         -7.82036939	         23.68359952	          2.02322237	
        325.52000000	        -42.60353533	         -2.74924671	          1.54938583	         -7.82036939	         23.68359952	          2.02322237	
        325.53000000	        -36.17913537	         -2.74924671	          1.54938583	         -7.82036939	         23.68359952	          2.02322237	
        325.54000000	        -29.75473540	         -2.74924671	          1.54938583	         -7.82036939	         23.68359952	          2.02322237	
        325.55000000	        -23.33033544	         -2.74924671	          1.54938583	         -7.82036939	         23.68359952	          2.02322237	
        325.56000000	        -16.90593547	         -2.74924671	          1.54938583	         -7.82036939	         23.68359952	          2.02322237	
        325.57000000	        -49.02793530	          2.15399008	          1.54938583	         -7.82036939	         23.68359952	          2.02322237	
        325.58000000	        -42.60353533	          2.15399008	          1.54938583	         -7.82036939	         23.68359952	          2.02322237	
        325.59000000	        -36.17913537	          2.15399008	          1.54938583	         -7.82036939	         23.68359952	          2.02322237	
        325.60000000	        -29.75473540	          2.15399008	          1.54938583	         -7.82036939	         23.68359952	          2.02322237	
        325.61000000	        -23.33033544	          2.15399008	          1.54938583	         -7.82036939	         23.68359952	          2.02322237	
        325.62000000	        -16.90593547	          2.15399008	          1.54938583	         -7.82036939	         23.68359952	          2.02322237	
        325.63000000	        -49.02793530	          7.05722688	          1.54938583	         -7.82036939	         23.68359952	          2.02322237	
        325.64000000	        -42.60353533	          7.05722688	          1.54938583	         -7.82036939	         23.68359952	          2.02322237	
        325.65000000	        -36.17913537	          7.05722688	          1.54938583	         -7.82036939	         23.68359952	          2.02322237	
        325.66000000	        -29.75473540	          7.05722688	          1.54938583	         -7.82036939	         23.68359952	          2.02322237	
        325.67000000	        -23.33033544	          7.05722688	          1.54938583	         -7.82036939	         23.68359952	          2.02322237	
